# Blender v2.91.2 OBJ File: 'upgrade-ring.blend'
# www.blender.org
mtllib upgrade-ring.mtl
o Circle
v 0.000000 0.000000 -1.000000
v -0.195090 0.000000 -0.980785
v -0.382683 0.000000 -0.923880
v -0.555570 0.000000 -0.831470
v -0.707107 0.000000 -0.707107
v -0.831470 0.000000 -0.555570
v -0.923880 0.000000 -0.382683
v -0.980785 0.000000 -0.195090
v -1.000000 0.000000 -0.000000
v -0.980785 0.000000 0.195090
v -0.923880 0.000000 0.382683
v -0.831470 0.000000 0.555570
v -0.707107 0.000000 0.707107
v -0.555570 0.000000 0.831470
v -0.382683 0.000000 0.923880
v -0.195090 0.000000 0.980785
v 0.000000 0.000000 1.000000
v 0.195091 0.000000 0.980785
v 0.382684 0.000000 0.923879
v 0.555571 0.000000 0.831469
v 0.707107 0.000000 0.707106
v 0.831470 0.000000 0.555570
v 0.923880 0.000000 0.382683
v 0.980785 0.000000 0.195089
v 1.000000 0.000000 -0.000001
v 0.980785 0.000000 -0.195091
v 0.923879 0.000000 -0.382684
v 0.831469 0.000000 -0.555571
v 0.707106 0.000000 -0.707108
v 0.555569 0.000000 -0.831470
v 0.382682 0.000000 -0.923880
v 0.195089 0.000000 -0.980786
v -0.000000 0.000000 -0.959525
v -0.187194 0.000000 -0.941088
v -0.367194 0.000000 -0.886485
v -0.533083 0.000000 -0.797816
v -0.678487 0.000000 -0.678487
v -0.797816 0.000000 -0.533083
v -0.886485 0.000000 -0.367194
v -0.941088 0.000000 -0.187194
v -0.959525 0.000000 -0.000000
v -0.941088 0.000000 0.187194
v -0.886485 0.000000 0.367194
v -0.797816 0.000000 0.533083
v -0.678487 0.000000 0.678487
v -0.533083 0.000000 0.797816
v -0.367194 0.000000 0.886486
v -0.187194 0.000000 0.941088
v 0.000000 0.000000 0.959525
v 0.187194 0.000000 0.941088
v 0.367195 0.000000 0.886485
v 0.533084 0.000000 0.797816
v 0.678487 0.000000 0.678486
v 0.797816 0.000000 0.533083
v 0.886486 0.000000 0.367194
v 0.941088 0.000000 0.187193
v 0.959525 0.000000 -0.000001
v 0.941088 0.000000 -0.187195
v 0.886485 0.000000 -0.367195
v 0.797815 0.000000 -0.533085
v 0.678486 0.000000 -0.678487
v 0.533082 0.000000 -0.797817
v 0.367193 0.000000 -0.886486
v 0.187193 0.000000 -0.941088
vt 0.000000 0.000000
vt 0.000000 0.000000
vt 0.000000 0.000000
vt 0.000000 0.000000
vt 0.000000 0.000000
vt 0.000000 0.000000
vt 0.000000 0.000000
vt 0.000000 0.000000
vt 0.000000 0.000000
vt 0.000000 0.000000
vt 0.000000 0.000000
vt 0.000000 0.000000
vt 0.000000 0.000000
vt 0.000000 0.000000
vt 0.000000 0.000000
vt 0.000000 0.000000
vt 0.000000 0.000000
vt 0.000000 0.000000
vt 0.000000 0.000000
vt 0.000000 0.000000
vt 0.000000 0.000000
vt 0.000000 0.000000
vt 0.000000 0.000000
vt 0.000000 0.000000
vt 0.000000 0.000000
vt 0.000000 0.000000
vt 0.000000 0.000000
vt 0.000000 0.000000
vt 0.000000 0.000000
vt 0.000000 0.000000
vt 0.000000 0.000000
vt 0.000000 0.000000
vt 0.000000 0.000000
vt 0.000000 0.000000
vt 0.000000 0.000000
vt 0.000000 0.000000
vt 0.000000 0.000000
vt 0.000000 0.000000
vt 0.000000 0.000000
vt 0.000000 0.000000
vt 0.000000 0.000000
vt 0.000000 0.000000
vt 0.000000 0.000000
vt 0.000000 0.000000
vt 0.000000 0.000000
vt 0.000000 0.000000
vt 0.000000 0.000000
vt 0.000000 0.000000
vt 0.000000 0.000000
vt 0.000000 0.000000
vt 0.000000 0.000000
vt 0.000000 0.000000
vt 0.000000 0.000000
vt 0.000000 0.000000
vt 0.000000 0.000000
vt 0.000000 0.000000
vt 0.000000 0.000000
vt 0.000000 0.000000
vt 0.000000 0.000000
vt 0.000000 0.000000
vt 0.000000 0.000000
vt 0.000000 0.000000
vt 0.000000 0.000000
vt 0.000000 0.000000
vn 0.0000 -1.0000 0.0000
usemtl None
s off
f 18/1/1 17/2/1 49/3/1 50/4/1
f 5/5/1 4/6/1 36/7/1 37/8/1
f 32/9/1 31/10/1 63/11/1 64/12/1
f 19/13/1 18/1/1 50/4/1 51/14/1
f 6/15/1 5/5/1 37/8/1 38/16/1
f 1/17/1 32/9/1 64/12/1 33/18/1
f 20/19/1 19/13/1 51/14/1 52/20/1
f 7/21/1 6/15/1 38/16/1 39/22/1
f 21/23/1 20/19/1 52/20/1 53/24/1
f 8/25/1 7/21/1 39/22/1 40/26/1
f 22/27/1 21/23/1 53/24/1 54/28/1
f 9/29/1 8/25/1 40/26/1 41/30/1
f 23/31/1 22/27/1 54/28/1 55/32/1
f 10/33/1 9/29/1 41/30/1 42/34/1
f 24/35/1 23/31/1 55/32/1 56/36/1
f 11/37/1 10/33/1 42/34/1 43/38/1
f 25/39/1 24/35/1 56/36/1 57/40/1
f 12/41/1 11/37/1 43/38/1 44/42/1
f 26/43/1 25/39/1 57/40/1 58/44/1
f 13/45/1 12/41/1 44/42/1 45/46/1
f 27/47/1 26/43/1 58/44/1 59/48/1
f 14/49/1 13/45/1 45/46/1 46/50/1
f 28/51/1 27/47/1 59/48/1 60/52/1
f 15/53/1 14/49/1 46/50/1 47/54/1
f 2/55/1 1/17/1 33/18/1 34/56/1
f 29/57/1 28/51/1 60/52/1 61/58/1
f 16/59/1 15/53/1 47/54/1 48/60/1
f 3/61/1 2/55/1 34/56/1 35/62/1
f 30/63/1 29/57/1 61/58/1 62/64/1
f 17/2/1 16/59/1 48/60/1 49/3/1
f 4/6/1 3/61/1 35/62/1 36/7/1
f 31/10/1 30/63/1 62/64/1 63/11/1
